<?xml version="1.0" encoding="UTF-8" standalone="no"?><!DOCTYPE svg PUBLIC "-//W3C//DTD SVG 1.1//EN" "http://www.w3.org/Graphics/SVG/1.1/DTD/svg11.dtd"><svg width="100%" height="100%" viewBox="0 0 24 24" version="1.1" xmlns="http://www.w3.org/2000/svg" xmlns:xlink="http://www.w3.org/1999/xlink" xml:space="preserve" xmlns:serif="http://www.serif.com/" style="fill-rule:evenodd;clip-rule:evenodd;stroke-linejoin:round;stroke-miterlimit:2;"><g transform="matrix(0.033333,0,0,0.033333,-4,28)"><path d="M328.751,-118.775L200,-120C178,-120 159.167,-127.833 143.5,-143.5C127.833,-159.167 120,-178 120,-200L120,-480C120,-530 129.5,-576.833 148.5,-620.5C167.5,-664.167 193.167,-702.167 225.5,-734.5C257.833,-766.833 295.833,-792.5 339.5,-811.5C383.167,-830.5 430,-840 480,-840C530,-840 576.833,-830.5 620.5,-811.5C664.167,-792.5 702.167,-766.833 734.5,-734.5C766.833,-702.167 792.5,-664.167 811.5,-620.5C830.5,-576.833 840,-530 840,-480L840,-200C840,-178 832.167,-159.167 816.5,-143.5C800.833,-127.833 782,-120 760,-120L631.249,-118.775L631.249,-465.393L803.35,-438.775L801.65,-492.75C801.65,-570.75 746.433,-672.617 692.1,-726.95C637.767,-781.284 558,-805.9 480,-805.9C402,-805.9 320.533,-778.734 266.2,-724.4C211.867,-670.067 153.25,-573.3 153.25,-495.3L149.49,-413.367L328.751,-462.973L328.751,-118.775ZM280,-360L200,-360L200,-200L280,-200L280,-360ZM680,-360L680,-200L760,-200L760,-360L680,-360ZM280,-360L200,-360L280,-360ZM680,-360L760,-360L680,-360Z" style="fill:rgb(227,227,227);fill-rule:nonzero;"/></g><g transform="matrix(0.013604,0,0,0.013371,5.469865,13.726433)"><path d="M480,-300C530,-300 572.5,-317.5 607.5,-352.5C642.5,-387.5 660,-430 660,-480C660,-530 642.5,-572.5 607.5,-607.5C572.5,-642.5 530,-660 480,-660C430,-660 387.5,-642.5 352.5,-607.5C317.5,-572.5 300,-530 300,-480C300,-430 317.5,-387.5 352.5,-352.5C387.5,-317.5 430,-300 480,-300ZM451.5,-451.5C443.833,-459.167 440,-468.667 440,-480C440,-491.333 443.833,-500.833 451.5,-508.5C459.167,-516.167 468.667,-520 480,-520C491.333,-520 500.833,-516.167 508.5,-508.5C516.167,-500.833 520,-491.333 520,-480C520,-468.667 516.167,-459.167 508.5,-451.5C500.833,-443.833 491.333,-440 480,-440C468.667,-440 459.167,-443.833 451.5,-451.5ZM480,-80C424.667,-80 372.667,-90.5 324,-111.5C275.333,-132.5 233,-161 197,-197C161,-233 132.5,-275.333 111.5,-324C90.5,-372.667 80,-424.667 80,-480C80,-535.333 90.5,-587.333 111.5,-636C132.5,-684.667 161,-727 197,-763C233,-799 275.333,-827.5 324,-848.5C372.667,-869.5 424.667,-880 480,-880C535.333,-880 587.333,-869.5 636,-848.5C684.667,-827.5 727,-799 763,-763C799,-727 827.5,-684.667 848.5,-636C869.5,-587.333 880,-535.333 880,-480C880,-424.667 869.5,-372.667 848.5,-324C827.5,-275.333 799,-233 763,-197C727,-161 684.667,-132.5 636,-111.5C587.333,-90.5 535.333,-80 480,-80ZM480,-160C569.333,-160 645,-191 707,-253C769,-315 800,-390.667 800,-480C800,-569.333 769,-645 707,-707C645,-769 569.333,-800 480,-800C390.667,-800 315,-769 253,-707C191,-645 160,-569.333 160,-480C160,-390.667 191,-315 253,-253C315,-191 390.667,-160 480,-160Z" style="fill:rgb(227,227,227);fill-rule:nonzero;"/></g><g transform="matrix(0.007625,0,0,0.004586,8.339832,24.91721)"><path d="M40,-200L40,-760L120,-760L120,-200L40,-200ZM160,-200L160,-760L240,-760L240,-200L160,-200ZM280,-200L280,-760L320,-760L320,-200L280,-200ZM400,-200L400,-760L480,-760L480,-200L400,-200ZM520,-200L520,-760L640,-760L640,-200L520,-200ZM680,-200L680,-760L720,-760L720,-200L680,-200ZM800,-200L800,-760L920,-760L920,-200L800,-200Z" style="fill:rgb(227,227,227);fill-rule:nonzero;"/></g></svg>